<?xml version="1.0" encoding="UTF-8" standalone="no"?>
<!DOCTYPE svg PUBLIC "-//W3C//DTD SVG 1.1//EN"
 "http://www.w3.org/Graphics/SVG/1.1/DTD/svg11.dtd">
<!-- Generated by graphviz version 2.49.3 (20211023.0002)
 -->
<!-- Title: Tree Pages: 1 -->
<svg width="590pt" height="314pt"
 viewBox="0.00 0.00 590.00 314.00" xmlns="http://www.w3.org/2000/svg" xmlns:xlink="http://www.w3.org/1999/xlink">
<g id="graph0" class="graph" transform="scale(1 1) rotate(0) translate(4 310)">
<title>Tree</title>
<polygon fill="white" stroke="transparent" points="-4,4 -4,-310 586,-310 586,4 -4,4"/>
<!-- 0 -->
<g id="node1" class="node">
<title>0</title>
<path fill="#fae7d9" stroke="black" d="M353.5,-306C353.5,-306 228.5,-306 228.5,-306 222.5,-306 216.5,-300 216.5,-294 216.5,-294 216.5,-235 216.5,-235 216.5,-229 222.5,-223 228.5,-223 228.5,-223 353.5,-223 353.5,-223 359.5,-223 365.5,-229 365.5,-235 365.5,-235 365.5,-294 365.5,-294 365.5,-300 359.5,-306 353.5,-306"/>
<text text-anchor="start" x="246.5" y="-290.8" font-family="Helvetica,sans-Serif" font-size="14.00">pay_off ≤ 10.5</text>
<text text-anchor="start" x="242" y="-275.8" font-family="Helvetica,sans-Serif" font-size="14.00">entropy = 0.992</text>
<text text-anchor="start" x="237" y="-260.8" font-family="Helvetica,sans-Serif" font-size="14.00">samples = 20107</text>
<text text-anchor="start" x="224.5" y="-245.8" font-family="Helvetica,sans-Serif" font-size="14.00">value = [11120, 8987]</text>
<text text-anchor="start" x="263" y="-230.8" font-family="Helvetica,sans-Serif" font-size="14.00">class = 0</text>
</g>
<!-- 1 -->
<g id="node2" class="node">
<title>1</title>
<path fill="#eda673" stroke="black" d="M270,-187C270,-187 142,-187 142,-187 136,-187 130,-181 130,-175 130,-175 130,-116 130,-116 130,-110 136,-104 142,-104 142,-104 270,-104 270,-104 276,-104 282,-110 282,-116 282,-116 282,-175 282,-175 282,-181 276,-187 270,-187"/>
<text text-anchor="start" x="142" y="-171.8" font-family="Helvetica,sans-Serif" font-size="14.00">#_of_overdues ≤ 0.5</text>
<text text-anchor="start" x="157" y="-156.8" font-family="Helvetica,sans-Serif" font-size="14.00">entropy = 0.772</text>
<text text-anchor="start" x="152" y="-141.8" font-family="Helvetica,sans-Serif" font-size="14.00">samples = 13791</text>
<text text-anchor="start" x="138" y="-126.8" font-family="Helvetica,sans-Serif" font-size="14.00">value = [10666, 3125]</text>
<text text-anchor="start" x="178" y="-111.8" font-family="Helvetica,sans-Serif" font-size="14.00">class = 0</text>
</g>
<!-- 0&#45;&gt;1 -->
<g id="edge1" class="edge">
<title>0&#45;&gt;1</title>
<path fill="none" stroke="black" d="M261.51,-222.91C255.05,-214.01 248.14,-204.51 241.48,-195.33"/>
<polygon fill="black" stroke="black" points="244.15,-193.05 235.44,-187.02 238.48,-197.17 244.15,-193.05"/>
<text text-anchor="middle" x="231.53" y="-208.01" font-family="Helvetica,sans-Serif" font-size="14.00">True</text>
</g>
<!-- 4 -->
<g id="node5" class="node">
<title>4</title>
<path fill="#48a5e7" stroke="black" d="M440,-187C440,-187 312,-187 312,-187 306,-187 300,-181 300,-175 300,-175 300,-116 300,-116 300,-110 306,-104 312,-104 312,-104 440,-104 440,-104 446,-104 452,-110 452,-116 452,-116 452,-175 452,-175 452,-181 446,-187 440,-187"/>
<text text-anchor="start" x="308" y="-171.8" font-family="Helvetica,sans-Serif" font-size="14.00">#_of_overdues ≤ 12.5</text>
<text text-anchor="start" x="327" y="-156.8" font-family="Helvetica,sans-Serif" font-size="14.00">entropy = 0.373</text>
<text text-anchor="start" x="326" y="-141.8" font-family="Helvetica,sans-Serif" font-size="14.00">samples = 6316</text>
<text text-anchor="start" x="316" y="-126.8" font-family="Helvetica,sans-Serif" font-size="14.00">value = [454, 5862]</text>
<text text-anchor="start" x="348" y="-111.8" font-family="Helvetica,sans-Serif" font-size="14.00">class = 1</text>
</g>
<!-- 0&#45;&gt;4 -->
<g id="edge4" class="edge">
<title>0&#45;&gt;4</title>
<path fill="none" stroke="black" d="M320.49,-222.91C326.95,-214.01 333.86,-204.51 340.52,-195.33"/>
<polygon fill="black" stroke="black" points="343.52,-197.17 346.56,-187.02 337.85,-193.05 343.52,-197.17"/>
<text text-anchor="middle" x="350.47" y="-208.01" font-family="Helvetica,sans-Serif" font-size="14.00">False</text>
</g>
<!-- 2 -->
<g id="node3" class="node">
<title>2</title>
<path fill="#399de5" stroke="black" d="M108,-68C108,-68 12,-68 12,-68 6,-68 0,-62 0,-56 0,-56 0,-12 0,-12 0,-6 6,0 12,0 12,0 108,0 108,0 114,0 120,-6 120,-12 120,-12 120,-56 120,-56 120,-62 114,-68 108,-68"/>
<text text-anchor="start" x="18.5" y="-52.8" font-family="Helvetica,sans-Serif" font-size="14.00">entropy = 0.0</text>
<text text-anchor="start" x="10" y="-37.8" font-family="Helvetica,sans-Serif" font-size="14.00">samples = 2154</text>
<text text-anchor="start" x="8" y="-22.8" font-family="Helvetica,sans-Serif" font-size="14.00">value = [0, 2154]</text>
<text text-anchor="start" x="32" y="-7.8" font-family="Helvetica,sans-Serif" font-size="14.00">class = 1</text>
</g>
<!-- 1&#45;&gt;2 -->
<g id="edge2" class="edge">
<title>1&#45;&gt;2</title>
<path fill="none" stroke="black" d="M151.63,-103.73C138.87,-94.15 125.28,-83.96 112.59,-74.44"/>
<polygon fill="black" stroke="black" points="114.5,-71.5 104.4,-68.3 110.3,-77.1 114.5,-71.5"/>
</g>
<!-- 3 -->
<g id="node4" class="node">
<title>3</title>
<path fill="#e78c4b" stroke="black" d="M270,-68C270,-68 150,-68 150,-68 144,-68 138,-62 138,-56 138,-56 138,-12 138,-12 138,-6 144,0 150,0 150,0 270,0 270,0 276,0 282,-6 282,-12 282,-12 282,-56 282,-56 282,-62 276,-68 270,-68"/>
<text text-anchor="start" x="161" y="-52.8" font-family="Helvetica,sans-Serif" font-size="14.00">entropy = 0.414</text>
<text text-anchor="start" x="157" y="-37.8" font-family="Helvetica,sans-Serif" font-size="14.00">samples = 11637</text>
<text text-anchor="start" x="146" y="-22.8" font-family="Helvetica,sans-Serif" font-size="14.00">value = [10666, 971]</text>
<text text-anchor="start" x="182" y="-7.8" font-family="Helvetica,sans-Serif" font-size="14.00">class = 0</text>
</g>
<!-- 1&#45;&gt;3 -->
<g id="edge3" class="edge">
<title>1&#45;&gt;3</title>
<path fill="none" stroke="black" d="M207.49,-103.73C207.79,-95.52 208.11,-86.86 208.41,-78.56"/>
<polygon fill="black" stroke="black" points="211.92,-78.42 208.78,-68.3 204.92,-78.17 211.92,-78.42"/>
</g>
<!-- 5 -->
<g id="node6" class="node">
<title>5</title>
<path fill="#3b9ee5" stroke="black" d="M424,-68C424,-68 320,-68 320,-68 314,-68 308,-62 308,-56 308,-56 308,-12 308,-12 308,-6 314,0 320,0 320,0 424,0 424,0 430,0 436,-6 436,-12 436,-12 436,-56 436,-56 436,-62 430,-68 424,-68"/>
<text text-anchor="start" x="323" y="-52.8" font-family="Helvetica,sans-Serif" font-size="14.00">entropy = 0.083</text>
<text text-anchor="start" x="322" y="-37.8" font-family="Helvetica,sans-Serif" font-size="14.00">samples = 5447</text>
<text text-anchor="start" x="316" y="-22.8" font-family="Helvetica,sans-Serif" font-size="14.00">value = [56, 5391]</text>
<text text-anchor="start" x="344" y="-7.8" font-family="Helvetica,sans-Serif" font-size="14.00">class = 1</text>
</g>
<!-- 4&#45;&gt;5 -->
<g id="edge5" class="edge">
<title>4&#45;&gt;5</title>
<path fill="none" stroke="black" d="M374.51,-103.73C374.21,-95.52 373.89,-86.86 373.59,-78.56"/>
<polygon fill="black" stroke="black" points="377.08,-78.17 373.22,-68.3 370.08,-78.42 377.08,-78.17"/>
</g>
<!-- 6 -->
<g id="node7" class="node">
<title>6</title>
<path fill="#e0f0fb" stroke="black" d="M570,-68C570,-68 466,-68 466,-68 460,-68 454,-62 454,-56 454,-56 454,-12 454,-12 454,-6 460,0 466,0 466,0 570,0 570,0 576,0 582,-6 582,-12 582,-12 582,-56 582,-56 582,-62 576,-68 570,-68"/>
<text text-anchor="start" x="469" y="-52.8" font-family="Helvetica,sans-Serif" font-size="14.00">entropy = 0.995</text>
<text text-anchor="start" x="472" y="-37.8" font-family="Helvetica,sans-Serif" font-size="14.00">samples = 869</text>
<text text-anchor="start" x="462" y="-22.8" font-family="Helvetica,sans-Serif" font-size="14.00">value = [398, 471]</text>
<text text-anchor="start" x="490" y="-7.8" font-family="Helvetica,sans-Serif" font-size="14.00">class = 1</text>
</g>
<!-- 4&#45;&gt;6 -->
<g id="edge6" class="edge">
<title>4&#45;&gt;6</title>
<path fill="none" stroke="black" d="M428.88,-103.73C441.29,-94.15 454.51,-83.96 466.85,-74.44"/>
<polygon fill="black" stroke="black" points="469.04,-77.18 474.82,-68.3 464.76,-71.63 469.04,-77.18"/>
</g>
</g>
</svg>
